{
  "accessors": [
    {
      "bufferView": 1,
      "componentType": 5126,
      "count": 65532,
      "max": [
        0.35796019434928894,
        1.5800727605819702,
        0.31746017932891846
      ],
      "min": [
        -0.35795852541923523,
        0.7723326086997986,
        -0.24306046962738037
      ],
      "type": "VEC3"
    },
    {
      "bufferView": 1,
      "byteOffset": 786384,
      "componentType": 5126,
      "count": 65532,
      "max": [
        0.9999920725822449,
        0.9999898672103882,
        0.9999743103981018
      ],
      "min": [
        -0.9999920129776001,
        -1.0,
        -0.9999987483024597
      ],
      "type": "VEC3"
    },
    {
      "bufferView": 0,
      "componentType": 5125,
      "count": 365727,
      "type": "SCALAR"
    },
    {
      "bufferView": 1,
      "byteOffset": 1572768,
      "componentType": 5126,
      "count": 16448,
      "max": [
        0.3574935495853424,
        1.5798611640930176,
        0.31746017932891846
      ],
      "min": [
        -0.3570840656757355,
        0.7726989984512329,
        -0.24234506487846375
      ],
      "type": "VEC3"
    },
    {
      "bufferView": 1,
      "byteOffset": 1770144,
      "componentType": 5126,
      "count": 16448,
      "max": [
        0.9999594688415527,
        0.9999380111694336,
        0.9996697306632996
      ],
      "min": [
        -0.9999090433120728,
        -0.9999067187309265,
        -0.9999515414237976
      ],
      "type": "VEC3"
    },
    {
      "bufferView": 0,
      "byteOffset": 1462908,
      "componentType": 5125,
      "count": 46875,
      "type": "SCALAR"
    }
  ],
  "asset": {
    "extras": {
      "author": "Rui Barbosa (https://sketchfab.com/ruibarbosa.art)",
      "license": "CC-BY-4.0 (http://creativecommons.org/licenses/by/4.0/)",
      "source": "https://sketchfab.com/3d-models/male-face-f032638713f54e6bace311ae911bd663",
      "title": "Male Face"
    },
    "generator": "Sketchfab-11.36.1",
    "version": "2.0"
  },
  "bufferViews": [
    {
      "buffer": 0,
      "byteLength": 1650408,
      "name": "floatBufferViews",
      "target": 34963
    },
    {
      "buffer": 0,
      "byteLength": 1967520,
      "byteOffset": 1650408,
      "byteStride": 12,
      "name": "floatBufferViews",
      "target": 34962
    }
  ],
  "buffers": [
    {
      "byteLength": 3617928,
      "uri": "scene.bin"
    }
  ],
  "materials": [
    {
      "doubleSided": true,
      "name": "FirstMaleFaceTOOL",
      "pbrMetallicRoughness": {
        "baseColorFactor": [
          0.5,
          0.5,
          0.5,
          1.0
        ],
        "metallicFactor": 0.0
      }
    }
  ],
  "meshes": [
    {
      "name": "FirstMaleFaceTOOL_FirstMaleFaceTOOL_0",
      "primitives": [
        {
          "attributes": {
            "NORMAL": 1,
            "POSITION": 0
          },
          "indices": 2,
          "material": 0,
          "mode": 4
        }
      ]
    },
    {
      "name": "FirstMaleFaceTOOL_FirstMaleFaceTOOL_0",
      "primitives": [
        {
          "attributes": {
            "NORMAL": 4,
            "POSITION": 3
          },
          "indices": 5,
          "material": 0,
          "mode": 4
        }
      ]
    }
  ],
  "nodes": [
    {
      "children": [
        1
      ],
      "matrix": [
        1.0,
        0.0,
        0.0,
        0.0,
        0.0,
        2.220446049250313e-16,
        -1.0,
        0.0,
        0.0,
        1.0,
        2.220446049250313e-16,
        0.0,
        0.0,
        0.0,
        0.0,
        1.0
      ],
      "name": "Sketchfab_model"
    },
    {
      "children": [
        2
      ],
      "matrix": [
        1.0,
        0.0,
        0.0,
        0.0,
        0.0,
        0.0,
        1.0,
        0.0,
        0.0,
        -1.0,
        0.0,
        0.0,
        0.0,
        0.0,
        0.0,
        1.0
      ],
      "name": "a7ccd7e4115349ecaafc447ac8b76899.fbx"
    },
    {
      "children": [
        3
      ],
      "name": "RootNode"
    },
    {
      "children": [
        4,
        5
      ],
      "name": "FirstMaleFaceTOOL"
    },
    {
      "mesh": 0,
      "name": "FirstMaleFaceTOOL_FirstMaleFaceTOOL_0"
    },
    {
      "mesh": 1,
      "name": "FirstMaleFaceTOOL_FirstMaleFaceTOOL_0"
    }
  ],
  "scene": 0,
  "scenes": [
    {
      "name": "Sketchfab_Scene",
      "nodes": [
        0
      ]
    }
  ]
}
